<?xml version="1.0" encoding="iso-8859-1"?>
<!-- Generator: Adobe Illustrator 19.0.0, SVG Export Plug-In . SVG Version: 6.00 Build 0)  -->
<svg version="1.1" id="Capa_1" xmlns="http://www.w3.org/2000/svg" xmlns:xlink="http://www.w3.org/1999/xlink" x="0px" y="0px"
	 viewBox="0 0 512 512" style="enable-background:new 0 0 512 512;" xml:space="preserve">
<path style="fill:#61E7C4;" d="M444,0H44c-4.418,0-8,3.582-8,8v496c0,4.418,3.582,8,8,8h400c4.418,0,8-3.582,8-8V8
	C452,3.582,448.418,0,444,0z"/>
<path style="fill:#FFEEE7;" d="M419.59,85.47l-16-48C402.501,34.204,399.443,32,396,32s-6.501,2.204-7.59,5.47l-16,48
	c-0.813,2.439-0.403,5.121,1.1,7.208C375.014,94.764,377.429,96,380,96h32c2.571,0,4.986-1.236,6.49-3.322
	C419.993,90.591,420.402,87.91,419.59,85.47z"/>
<path style="fill:#FDDE7E;" d="M403.59,37.47C402.501,34.204,399.443,32,396,32s-6.501,2.204-7.59,5.47l-3.621,10.863h22.422
	L403.59,37.47z"/>
<path style="fill:#EFECF1;" d="M412,432h-32c-4.418,0-8,3.582-8,8v24c0,8.837,7.163,16,16,16h16c8.837,0,16-7.163,16-16v-24
	C420,435.582,416.418,432,412,432z"/>
<path style="fill:#EBE3EF;" d="M388,464v-24c0-4.418,3.582-8,8-8h-16c-4.418,0-8,3.582-8,8v24c0,8.836,7.164,16,16,16h16
	C395.164,480,388,472.836,388,464z"/>
<rect x="372" y="88" style="fill:#DA6C84;" width="48" height="352"/>
<rect x="372" y="88" style="fill:#D65974;" width="16" height="352"/>
<path style="fill:#FDE8A3;" d="M468,200H356c-2.374,0-4.626,1.055-6.146,2.878l-40,48c-2.473,2.967-2.473,7.276,0,10.243l40,48
	c1.52,1.824,3.771,2.878,6.146,2.878h112c4.418,0,8-3.582,8-8v-96C476,203.582,472.418,200,468,200z"/>
<path style="fill:#FDDA6B;" d="M357.854,293.122l-40-48c-0.576-0.691-1.012-1.457-1.32-2.26l-6.68,8.016
	c-2.473,2.967-2.473,7.276,0,10.243l40,48c1.52,1.824,3.771,2.878,6.146,2.878h112c4.418,0,8-3.582,8-8v-8H364
	C361.626,296,359.374,294.945,357.854,293.122z"/>
<path style="fill:#FDE8A3;" d="M124,0H44c-4.418,0-8,3.582-8,8v496c0,4.418,3.582,8,8,8h80V0z"/>
<path style="fill:#FDDA6B;" d="M52,0h-8c-4.418,0-8,3.582-8,8v496c0,4.418,3.582,8,8,8h8V0z"/>
<g>
	<path style="fill:#FF8A99;" d="M241.47,151.589c0.821,0.274,1.676,0.411,2.53,0.411s1.709-0.137,2.53-0.411
		c1.293-0.431,31.844-10.883,45.851-38.895c8.179-16.356,3.98-36.396-9.556-45.622c-9.166-6.247-23.687-7.542-38.825,5.476
		c-15.141-13.018-29.658-11.722-38.825-5.476c-13.536,9.226-17.734,29.265-9.556,45.622
		C209.626,140.706,240.177,151.158,241.47,151.589z"/>
	<path style="fill:#FF8A99;" d="M282.825,364.625c-9.166-6.247-23.687-7.542-38.825,5.476
		c-15.141-13.018-29.658-11.723-38.825-5.476c-13.536,9.226-17.734,29.265-9.556,45.622c14.007,28.011,44.558,38.463,45.851,38.894
		c0.821,0.274,1.676,0.411,2.53,0.411s1.709-0.137,2.53-0.411c1.293-0.431,31.844-10.883,45.851-38.895
		C300.56,393.891,296.361,373.851,282.825,364.625z"/>
	<path style="fill:#FF8A99;" d="M282.825,211.073c-9.166-6.248-23.687-7.542-38.825,5.476
		c-15.141-13.018-29.658-11.722-38.825-5.476c-13.536,9.226-17.734,29.265-9.556,45.622c14.007,28.011,44.558,38.463,45.851,38.894
		c0.821,0.274,1.676,0.411,2.53,0.411s1.709-0.137,2.53-0.411c1.293-0.431,31.844-10.883,45.851-38.895
		C300.56,240.338,296.361,220.299,282.825,211.073z"/>
</g>
<path style="fill:#61E7C4;" d="M396,232c-13.233,0-24,10.766-24,24c0,13.234,10.767,24,24,24s24-10.766,24-24S409.233,232,396,232z"
	/>
<g>
</g>
<g>
</g>
<g>
</g>
<g>
</g>
<g>
</g>
<g>
</g>
<g>
</g>
<g>
</g>
<g>
</g>
<g>
</g>
<g>
</g>
<g>
</g>
<g>
</g>
<g>
</g>
<g>
</g>
</svg>
