<?xml version="1.0" encoding="iso-8859-1"?>
<!-- Generator: Adobe Illustrator 19.0.0, SVG Export Plug-In . SVG Version: 6.00 Build 0)  -->
<svg version="1.1" id="Capa_1" xmlns="http://www.w3.org/2000/svg" xmlns:xlink="http://www.w3.org/1999/xlink" x="0px" y="0px"
	 viewBox="0 0 384.178 384.178" fill='#023e8a' style="enable-background:new 0 0 384.178 384.178;" xml:space="preserve">
<g>
	<g>
		<path d="M382.578,200.989l-93.2-93.6c0-0.4,0.4-0.8,0.4-1.6v-75.2c0-3.6-2.8-6.4-6.4-6.4h-44c-3.6,0-6.4,2.8-6.4,6.4v20.4
			l-36.4-36.8c-2.4-2.4-6.4-2.4-8.8,0l-186,186.8c-1.6,1.6-2.4,4.4-1.2,6.8c0.8,2.4,3.2,4,5.6,4h45.6v153.6c0,3.6,2.8,6.4,6.4,6.4
			h268c3.6,0,6.4-2.8,6.4-6.4v-153.6h45.6c2.4,0,4.8-1.6,5.6-4C384.578,205.389,384.178,202.589,382.578,200.989z M245.778,36.989
			h31.2v58.4l-31.2-31.6V36.989z M222.978,358.989h-0.4h-64v-95.6h64.4V358.989z M320.178,358.989h-84.8v-101.6
			c0-3.6-2.8-6.4-6.4-6.4h-76.8c-3.6,0-6.4,2.8-6.4,6.4v102h-81.6v-147.6h256V358.989z M326.178,199.389h-268h-36.8l170.8-171.6
			l42.8,43.2l128,128.4H326.178z"/>
	</g>
</g>
<g>
</g>
<g>
</g>
<g>
</g>
<g>
</g>
<g>
</g>
<g>
</g>
<g>
</g>
<g>
</g>
<g>
</g>
<g>
</g>
<g>
</g>
<g>
</g>
<g>
</g>
<g>
</g>
<g>
</g>
</svg>
